<svg xmlns="http://www.w3.org/2000/svg" viewBox="0 0 32 32"><g fill="none"><circle cx="16" cy="16" r="16" fill="#000"/><path d="M9.925 19.687a.59.59 0 01.415-.17h14.366a.29.29 0 01.207.497l-2.838 2.815a.59.59 0 01-.415.171H7.294a.29.29 0 01-.207-.498l2.838-2.815zm0-10.517a.59.59 0 01.415-.17h14.366a.29.29 0 01.207.496l-2.838 2.816a.59.59 0 01-.415.17H7.294a.29.29 0 01-.207-.497l2.838-2.815zm17.008 5.255a.59.59 0 00-.415-.17H12.152a.29.29 0 00-.207.496l2.838 2.816a.59.59 0 00.415.17h14.366a.29.29 0 00.207-.497l-2.838-2.815z" fill="#FFF"/></g></svg>
